# xmcd
#
# Track frame offsets:
#	150
#	9355
#	28128
#	41728
#	53315
#	75032
#	92639
#	110541
#	124523
#	143752
#
# Disc length: 2076 seconds
#
# Revision: 1
# Processed by: cddbd v1.5.2PL0 Copyright (c) Steve Scherf et al.
# Submitted via: audiograbber 1.83.01
#
DISCID=69081a0a
DTITLE=Simon Von Konoy - Høstgildet
DYEAR=2010
DGENRE=Country
TTITLE0=Høstgildet (2010)
TTITLE1=Hvor alle får lov (2010)
TTITLE2=Hva' fan' er det dog, der sker (2010)
TTITLE3=To til en vals (2010)
TTITLE4=Når jeg kommer hjem (2010)
TTITLE5=Er det forkert at elske dig (2010)
TTITLE6=Når vi har tømt hele rammen (2010)
TTITLE7=Nu går dansen over bølgen blå (2010)
TTITLE8=Jeg glemmer aldrig (2010)
TTITLE9=Øl (2010)
EXTD=
EXTT0=
EXTT1=
EXTT2=
EXTT3=
EXTT4=
EXTT5=
EXTT6=
EXTT7=
EXTT8=
EXTT9=
PLAYORDER=
